# xmcd CD database file
#
# Track frame offsets:
#	182
#	30535
#	53205
#	72150
#	90942
#	120715
#	142975
#
# Disc length: 2442 seconds
#
# Revision: 0
# Processed by: cddbd v1.5.2PL0 Copyright (c) Steve Scherf et al.
# Submitted via: CDex 1.51
#
DISCID=54098807
DTITLE=David Phillips - The Quest - A Journey of the Heart
DYEAR=1900
DGENRE=New Age
TTITLE0=The Quest
TTITLE1=The Call of the Heart
TTITLE2=Pathway of the King
TTITLE3=Song of the Wind
TTITLE4=Light of Eternity
TTITLE5=To Touch the Stars
TTITLE6=Around the Throne
EXTD=
EXTT0=
EXTT1=
EXTT2=
EXTT3=
EXTT4=
EXTT5=
EXTT6=
PLAYORDER=
